<mxfile host="app.diagrams.net" modified="2023-07-14T01:40:27.218Z" agent="Mozilla/5.0 (Windows NT 10.0; Win64; x64) AppleWebKit/537.36 (KHTML, like Gecko) Chrome/114.0.0.0 Safari/537.36" etag="9J-nf_UnaYmV4mlKjTkb" version="21.6.2" type="github">
  <diagram name="第 1 页" id="YlHd71oeAPm1Yk9yJuap">
    <mxGraphModel dx="910" dy="518" grid="1" gridSize="10" guides="1" tooltips="1" connect="1" arrows="1" fold="1" page="1" pageScale="1" pageWidth="827" pageHeight="1169" math="0" shadow="0">
      <root>
        <mxCell id="0" />
        <mxCell id="1" parent="0" />
        <mxCell id="3_n1Zt7U288-5b84kTgH-2" value="" style="edgeStyle=orthogonalEdgeStyle;rounded=0;orthogonalLoop=1;jettySize=auto;html=1;" edge="1" parent="1" source="_a2qOcLuyAGTcwhGrG3Q-1" target="3_n1Zt7U288-5b84kTgH-1">
          <mxGeometry relative="1" as="geometry" />
        </mxCell>
        <mxCell id="_a2qOcLuyAGTcwhGrG3Q-1" value="(1)当前区县的站址总数&lt;br&gt;&amp;nbsp; &amp;nbsp; &amp;nbsp; &amp;nbsp; (2)当前区县锂电池&amp;lt;52v数量&lt;br&gt;&amp;nbsp; &amp;nbsp; &amp;nbsp;(3) 当前区县铅酸&amp;lt;49v数量&lt;br&gt;&amp;nbsp; &amp;nbsp; &amp;nbsp; &amp;nbsp; &amp;nbsp; &amp;nbsp; &amp;nbsp; (4) 当前区县电压中采集异常数量&lt;br&gt;(5)当前区县停电的数量" style="rounded=0;whiteSpace=wrap;html=1;fillColor=#ffe6cc;strokeColor=#d79b00;" parent="1" vertex="1">
          <mxGeometry x="250" y="50" width="260" height="100" as="geometry" />
        </mxCell>
        <mxCell id="3_n1Zt7U288-5b84kTgH-13" style="edgeStyle=orthogonalEdgeStyle;rounded=0;orthogonalLoop=1;jettySize=auto;html=1;exitX=0.5;exitY=1;exitDx=0;exitDy=0;entryX=0.582;entryY=-0.044;entryDx=0;entryDy=0;entryPerimeter=0;" edge="1" parent="1" source="3_n1Zt7U288-5b84kTgH-1" target="3_n1Zt7U288-5b84kTgH-4">
          <mxGeometry relative="1" as="geometry" />
        </mxCell>
        <mxCell id="3_n1Zt7U288-5b84kTgH-14" style="edgeStyle=orthogonalEdgeStyle;rounded=0;orthogonalLoop=1;jettySize=auto;html=1;exitX=0.5;exitY=1;exitDx=0;exitDy=0;entryX=0.598;entryY=-0.056;entryDx=0;entryDy=0;entryPerimeter=0;" edge="1" parent="1" source="3_n1Zt7U288-5b84kTgH-1" target="3_n1Zt7U288-5b84kTgH-5">
          <mxGeometry relative="1" as="geometry" />
        </mxCell>
        <mxCell id="3_n1Zt7U288-5b84kTgH-15" style="edgeStyle=orthogonalEdgeStyle;rounded=0;orthogonalLoop=1;jettySize=auto;html=1;exitX=1;exitY=0.5;exitDx=0;exitDy=0;entryX=0.612;entryY=-0.02;entryDx=0;entryDy=0;entryPerimeter=0;" edge="1" parent="1" source="3_n1Zt7U288-5b84kTgH-1" target="3_n1Zt7U288-5b84kTgH-6">
          <mxGeometry relative="1" as="geometry" />
        </mxCell>
        <mxCell id="3_n1Zt7U288-5b84kTgH-16" style="edgeStyle=orthogonalEdgeStyle;rounded=0;orthogonalLoop=1;jettySize=auto;html=1;exitX=0;exitY=0.5;exitDx=0;exitDy=0;entryX=0.571;entryY=0.017;entryDx=0;entryDy=0;entryPerimeter=0;" edge="1" parent="1" source="3_n1Zt7U288-5b84kTgH-1" target="3_n1Zt7U288-5b84kTgH-3">
          <mxGeometry relative="1" as="geometry" />
        </mxCell>
        <mxCell id="3_n1Zt7U288-5b84kTgH-1" value="停电&lt;b&gt;/&lt;/b&gt;站址&lt;br&gt;（percent）" style="rhombus;whiteSpace=wrap;html=1;fillColor=#ffe6cc;strokeColor=#d79b00;" vertex="1" parent="1">
          <mxGeometry x="340" y="240" width="80" height="80" as="geometry" />
        </mxCell>
        <mxCell id="3_n1Zt7U288-5b84kTgH-3" value="一般故障" style="shape=parallelogram;perimeter=parallelogramPerimeter;whiteSpace=wrap;html=1;fixedSize=1;fillColor=#ffe6cc;strokeColor=#d79b00;" vertex="1" parent="1">
          <mxGeometry x="40" y="400" width="120" height="60" as="geometry" />
        </mxCell>
        <mxCell id="3_n1Zt7U288-5b84kTgH-4" value="较大故障" style="shape=parallelogram;perimeter=parallelogramPerimeter;whiteSpace=wrap;html=1;fixedSize=1;fillColor=#ffe6cc;strokeColor=#d79b00;" vertex="1" parent="1">
          <mxGeometry x="230" y="400" width="120" height="60" as="geometry" />
        </mxCell>
        <mxCell id="3_n1Zt7U288-5b84kTgH-5" value="重大故障" style="shape=parallelogram;perimeter=parallelogramPerimeter;whiteSpace=wrap;html=1;fixedSize=1;fillColor=#ffe6cc;strokeColor=#d79b00;" vertex="1" parent="1">
          <mxGeometry x="413.5" y="400" width="120" height="60" as="geometry" />
        </mxCell>
        <mxCell id="3_n1Zt7U288-5b84kTgH-6" value="特大故障" style="shape=parallelogram;perimeter=parallelogramPerimeter;whiteSpace=wrap;html=1;fixedSize=1;fillColor=#ffe6cc;strokeColor=#d79b00;" vertex="1" parent="1">
          <mxGeometry x="590" y="400" width="120" height="60" as="geometry" />
        </mxCell>
        <mxCell id="3_n1Zt7U288-5b84kTgH-17" value="percent&amp;gt;=5%&lt;br&gt;停电数量=30" style="text;html=1;align=center;verticalAlign=middle;resizable=0;points=[];autosize=1;strokeColor=none;fillColor=none;" vertex="1" parent="1">
          <mxGeometry x="140" y="240" width="90" height="40" as="geometry" />
        </mxCell>
        <mxCell id="3_n1Zt7U288-5b84kTgH-21" value="percent&amp;gt;=10%" style="text;html=1;align=center;verticalAlign=middle;resizable=0;points=[];autosize=1;strokeColor=none;fillColor=none;" vertex="1" parent="1">
          <mxGeometry x="240" y="330" width="100" height="30" as="geometry" />
        </mxCell>
        <mxCell id="3_n1Zt7U288-5b84kTgH-22" value="percent&amp;gt;=20%" style="text;html=1;align=center;verticalAlign=middle;resizable=0;points=[];autosize=1;strokeColor=none;fillColor=none;" vertex="1" parent="1">
          <mxGeometry x="433.5" y="330" width="100" height="30" as="geometry" />
        </mxCell>
        <mxCell id="3_n1Zt7U288-5b84kTgH-23" value="percent&amp;gt;=70%" style="text;html=1;align=center;verticalAlign=middle;resizable=0;points=[];autosize=1;strokeColor=none;fillColor=none;" vertex="1" parent="1">
          <mxGeometry x="660" y="330" width="100" height="30" as="geometry" />
        </mxCell>
      </root>
    </mxGraphModel>
  </diagram>
</mxfile>
